<svg id="Address" xmlns="http://www.w3.org/2000/svg" viewBox="0 0 485.42 377.27"><defs><style>.cls-1{fill:#ff7c24;}.cls-2{fill:#39b6cc;}</style></defs><path class="cls-1" d="M134.3,118.48a37,37,0,1,1-33.8,51.91l-9.14,4.05a47,47,0,1,0-4-19h10A37,37,0,0,1,134.3,118.48Z" transform="translate(-13.29 -67.37)"/><path class="cls-1" d="M180.84,370l6.25,7.81a85.82,85.82,0,0,0,9.32-8.67l-7.34-6.79A75.39,75.39,0,0,1,180.84,370Z" transform="translate(-13.29 -67.37)"/><path class="cls-1" d="M48.94,311.13l10,0a76.43,76.43,0,0,1,.86-11.22l-9.88-1.5A85.49,85.49,0,0,0,48.94,311.13Z" transform="translate(-13.29 -67.37)"/><path class="cls-1" d="M219,307.23a85,85,0,0,0-.87-8.75L208.2,300a76.64,76.64,0,0,1,.78,7.73c.05,1.16.08,2.33.09,3.49l10,0C219.06,309.86,219,308.53,219,307.23Z" transform="translate(-13.29 -67.37)"/><path class="cls-1" d="M165.1,390.55A84.16,84.16,0,0,0,176.58,385l-5-8.66a74.82,74.82,0,0,1-10.12,4.89Z" transform="translate(-13.29 -67.37)"/><path class="cls-1" d="M127.61,396.19l.74-10a73,73,0,0,1-11.11-1.67L115,394.29A84.84,84.84,0,0,0,127.61,396.19Z" transform="translate(-13.29 -67.37)"/><path class="cls-1" d="M210.7,348.17l-9-4.33a75.35,75.35,0,0,1-5.62,9.73l8.27,5.63A83.9,83.9,0,0,0,210.7,348.17Z" transform="translate(-13.29 -67.37)"/><path class="cls-1" d="M218.15,323.87l-9.89-1.46a74.56,74.56,0,0,1-2.47,11l9.56,2.93A83.69,83.69,0,0,0,218.15,323.87Z" transform="translate(-13.29 -67.37)"/><path class="cls-1" d="M140.34,396.18a84.22,84.22,0,0,0,12.59-1.88l-2.21-9.75a76.88,76.88,0,0,1-11.12,1.66Z" transform="translate(-13.29 -67.37)"/><path class="cls-1" d="M62.21,333.33a74.37,74.37,0,0,1-2.46-11l-9.89,1.46a83.25,83.25,0,0,0,2.79,12.42Z" transform="translate(-13.29 -67.37)"/><path class="cls-1" d="M79.2,260.08l-7.31-6.84a87.26,87.26,0,0,0-8,9.92l8.24,5.68A75.07,75.07,0,0,1,79.2,260.08Z" transform="translate(-13.29 -67.37)"/><path class="cls-1" d="M91.37,385a85.93,85.93,0,0,0,11.47,5.55l3.67-9.31a75.4,75.4,0,0,1-10.12-4.89Z" transform="translate(-13.29 -67.37)"/><path class="cls-1" d="M71.89,353.52a74.55,74.55,0,0,1-5.6-9.73l-9,4.33a86.32,86.32,0,0,0,6.35,11Z" transform="translate(-13.29 -67.37)"/><path class="cls-1" d="M52.79,286l9.54,3a75.75,75.75,0,0,1,4.15-10.45l-9-4.38A84.43,84.43,0,0,0,52.79,286Z" transform="translate(-13.29 -67.37)"/><path class="cls-1" d="M188.86,260.12a75.62,75.62,0,0,1,7,8.76l8.24-5.66a84.5,84.5,0,0,0-8-9.92Z" transform="translate(-13.29 -67.37)"/><path class="cls-1" d="M80.87,377.78,87.12,370a74.48,74.48,0,0,1-8.23-7.65l-7.34,6.79A85,85,0,0,0,80.87,377.78Z" transform="translate(-13.29 -67.37)"/><path class="cls-1" d="M215.24,286.06a85.49,85.49,0,0,0-4.69-11.84l-9,4.37A75,75,0,0,1,205.69,289Z" transform="translate(-13.29 -67.37)"/><path d="M388,434.64H23.29V106.07H60.85a88.6,88.6,0,0,0-15.69,50.44c0,23.08,19.09,56.7,39.22,85.76-1,.76-2.1,1.55-3.12,2.35l6.21,7.84c.87-.69,1.78-1.36,2.69-2,6.7,9.31,13.32,18,19.21,25.4a44,44,0,1,0,49.88,0c5.83-7.36,12.38-15.9,19-25.11.8.58,1.58,1.17,2.34,1.78l6.21-7.84c-.91-.72-1.83-1.42-2.77-2.1,20.22-29.13,39.44-62.9,39.44-86.06a88.66,88.66,0,0,0-15.69-50.45h61.89v-10H199.78a89,89,0,0,0-130.93,0H13.29V444.63H388ZM168.31,312.07a34,34,0,1,1-52.67-28.42c1.22,1.5,2.38,2.91,3.49,4.25a27.94,27.94,0,1,0,30.35,0q1.67-2,3.49-4.25A34.08,34.08,0,0,1,168.31,312.07ZM143,295.64a17.94,17.94,0,1,1-17.35,0c2.72,3.19,4.48,5.19,4.93,5.69l3.74,4.23,3.75-4.23C138.5,300.84,140.26,298.83,143,295.64ZM134.3,77.36a79.25,79.25,0,0,1,79.16,79.15c0,38.58-63,114.91-79.16,133.87-16.17-19-79.14-95.27-79.14-133.87A79.24,79.24,0,0,1,134.3,77.36Z" transform="translate(-13.29 -67.37)"/><polygon points="304.38 38.7 475.42 38.7 475.42 367.27 393.15 367.27 393.15 377.27 485.42 377.27 485.42 28.7 304.38 28.7 304.38 38.7"/><rect x="271.86" y="28.7" width="17.18" height="10"/><path class="cls-2" d="M240.26,379.38l46.36-50.81H464V169.23H240.26Zm10-200.15H454V318.57H282.21l-31.95,35Z" transform="translate(-13.29 -67.37)"/><rect class="cls-2" x="289.71" y="149.06" width="121.62" height="10"/><rect class="cls-2" x="266.32" y="149.06" width="12.43" height="10"/><rect class="cls-2" x="266.32" y="206.18" width="101.51" height="10"/><rect class="cls-2" x="391.22" y="177.62" width="20.11" height="10"/><rect class="cls-2" x="266.32" y="177.62" width="114.54" height="10"/></svg>