<svg id="Layer_2" data-name="Layer 2" xmlns="http://www.w3.org/2000/svg" viewBox="0 0 34.22 27.75"><defs><style>.cls-1{fill:#ff7c24;}.cls-2{fill:#39b6cc;}</style></defs><path class="cls-1" d="M29.81,31.3h-.34l-2.81-.54a11.47,11.47,0,0,1-2.41.25c-5.7,0-10.34-4.17-10.34-9.29s4.64-9.29,10.34-9.29S34.6,16.57,34.6,21.69A8.78,8.78,0,0,1,31.82,28l-.17,1.62h0a1.85,1.85,0,0,1-1.84,1.66Zm-3.24-.59Zm4-1.18Zm-3.91-1a1.93,1.93,0,0,1,.34,0L29.5,29l.14-1.37a1.83,1.83,0,0,1,.58-1.15,6.57,6.57,0,0,0,2.18-4.82c0-3.91-3.65-7.09-8.15-7.09s-8.14,3.18-8.14,7.09,3.65,7.09,8.14,7.09a9,9,0,0,0,2-.22,1.79,1.79,0,0,1,.4,0Z" transform="translate(-0.38 -3.56)"/><path class="cls-2" d="M6.26,26.15a1.81,1.81,0,0,1-.88-.23,1.85,1.85,0,0,1-1-1.59V22.08a10.13,10.13,0,0,1-4-7.91C.4,8.32,5.75,3.56,12.32,3.56A12.1,12.1,0,0,1,23,9.39a1.1,1.1,0,0,1-1.88,1.14l0,0a9.93,9.93,0,0,0-8.73-4.72C7,5.76,2.6,9.53,2.6,14.17a8,8,0,0,0,3.25,6.28,1.81,1.81,0,0,1,.72,1.42v1.81l1.88-1.15a1.83,1.83,0,0,1,1.37-.22,10.71,10.71,0,0,0,1.38.22,1.1,1.1,0,0,1,1,1.17,1.11,1.11,0,0,1-1.17,1H11a12.82,12.82,0,0,1-1.51-.24L7.23,25.87A1.85,1.85,0,0,1,6.26,26.15Z" transform="translate(-0.38 -3.56)"/><circle cx="8.1" cy="8.61" r="1.24"/><circle cx="15.39" cy="8.61" r="1.24"/><circle cx="19.71" cy="15.64" r="1.08"/><circle cx="26.41" cy="15.64" r="1.08"/></svg>