<?xml version="1.0" encoding="utf-8" standalone="no"?>
<!DOCTYPE svg PUBLIC "-//W3C//DTD SVG 1.0//EN" "http://www.w3.org/TR/2001/REC-SVG-20010904/DTD/svg10.dtd"[]>
<svg xmlns="http://www.w3.org/2000/svg" xmlns:xlink="http://www.w3.org/1999/xlink" id="body_1" width="41" height="43.7" viewBox="3 2.3 41 43.7">
  <g transform="matrix(1.0020843 0 0 1.006917 0 0)">
    <g>
      <path d="M-515.916 -517.212L-515.916 562.788L564.084 562.788L564.084 -517.212L-515.916 -517.212z" stroke="none" fill="none" />
      <path d="M28.809 5.788C 25.967 4.088 22.341 4.088 19.499 5.788L19.499 5.788L12.051 10.188C 9.209 11.888 7.347 14.988 7.347 18.388L7.347 18.388L7.347 27.188C 7.347 30.588 9.111 33.688 12.051 35.388L12.051 35.388L19.499 39.788C 22.341 41.488 25.967 41.488 28.809 39.788L28.809 39.788L36.257 35.388C 39.099 33.688 40.961 30.588 40.961 27.188L40.961 27.188L40.961 18.388C 40.961 14.988 39.197 11.888 36.257 10.188L36.257 10.188L28.809 5.788z" stroke="#FFEDEE" stroke-width="2.94" fill="#FFC5C8" fill-rule="nonzero" />
      <path d="M19.845 12.088L27.783 12.088C 29.155 12.088 30.233 13.188 30.233 14.588L30.233 14.588L30.233 32.288C 30.233 33.688 29.155 34.688 27.783 34.788L27.783 34.788L19.845 34.788C 18.473 34.788 17.395 33.688 17.395 32.288L17.395 32.288L17.395 14.488C 17.493 13.188 18.571 12.088 19.845 12.088zM23.863 31.988C 24.451 31.988 24.843 32.388 24.843 32.988C 24.843 33.588 24.353 33.988 23.863 33.988C 23.373 33.988 22.883 33.588 22.883 32.988C 22.883 32.988 22.883 32.988 22.883 32.988C 22.883 32.488 23.275 31.988 23.863 31.988zM29.547 31.188L29.547 15.188L18.179 15.188L18.179 31.288L29.547 31.288L29.547 31.188z" stroke="#FF8B91" stroke-width="0.98" fill="#FF8B91" fill-rule="nonzero" />
      <path d="M18.18 15.188L29.548 15.188L29.548 31.288L18.18 31.288L18.18 15.188z" stroke="none" fill="#FFFFFF" fill-rule="nonzero" />
      <path d="M24.824 32.988C 24.824 33.2641 24.7283 33.4998 24.537 33.6951C 24.3456 33.8904 24.1146 33.988 23.844 33.988C 23.5734 33.988 23.3424 33.8904 23.151 33.6951C 22.9597 33.4998 22.864 33.2641 22.864 32.988C 22.864 32.7119 22.9597 32.4762 23.151 32.2809C 23.3424 32.0856 23.5734 31.988 23.844 31.988C 24.1146 31.988 24.3456 32.0856 24.537 32.2809C 24.7283 32.4762 24.824 32.7119 24.824 32.988C 24.824 32.9996 24.8238 33.0113 24.8234 33.0229" stroke="none" fill="#FFFFFF" fill-rule="nonzero" />
    </g>
  </g>
</svg>